<?xml version="1.0" encoding="utf-8"?>
<!-- Generator: Adobe Illustrator 21.1.0, SVG Export Plug-In . SVG Version: 6.00 Build 0)  -->
<svg version="1.1" xmlns="http://www.w3.org/2000/svg" xmlns:xlink="http://www.w3.org/1999/xlink" x="0px" y="0px"
	 viewBox="0 0 1896 1085" style="enable-background:new 0 0 1896 1085;" xml:space="preserve">
<g id="PSDN">
	<g>
		<path d="M213.6,579.5v304.1H64V57.8h161.3c64,0,111.5,9.6,142.5,28.8c31,19.2,46.5,58.4,46.5,117.5v229.2
			c0,54.1-12.7,92.4-38,114.9C351,570.6,296.7,581,213.6,579.5z M264.8,417.7V219.6c0-29.2-17.1-43.8-51.2-43.8v285.6
			C247.7,461.5,264.8,446.9,264.8,417.7z"/>
		<path d="M521.5,553h139.4v189.5c0,18.8,9.7,28.2,29,28.2c18.7,0,28-9.4,28-28.2v-97.9c0-29.9-16.9-65.1-50.7-105.4
			C601.9,464.3,561.2,414,545.3,388.3c-15.9-25.7-23.9-53.9-23.9-84.7V211c0-107.1,59.2-160.7,177.6-160.7
			c106,0,159.1,48.8,159.1,146.3v142.8H718.8v-152c0-16.5-7.8-24.8-23.4-24.8c-18.2,0-27.3,15.9-27.3,47.8l2.9,53.6
			c0,30.7,17.3,66.4,51.8,107.1c64.2,72.6,104.9,123.2,122.4,152c17.4,28.8,26.1,61.4,26.1,97.9v105.4
			c0,109.8-59.4,164.7-178.1,164.7c-114.5,0-171.8-49.9-171.8-149.7V553z"/>
		<path d="M981.4,883.6V57.8h191.5c41.7,0,78.8,13.3,111.4,40c32.6,26.7,48.9,67.7,48.9,122.9v499.8c0,51.4-15.2,91.5-45.7,120.1
			c-30.5,28.6-68.3,42.9-113.6,42.9H981.4z M1178.7,733.8V207c0-28.8-14.6-43.2-43.9-43.2v613.9
			C1164.1,777.6,1178.7,763,1178.7,733.8z"/>
		<path d="M1835,883.6h-157.9l-104.3-440v440h-128.2V57.8h174.4l87.7,376.6V57.8H1835V883.6z"/>
	</g>
</g>
<g id="PASSADENA">
	<g>
		<path d="M121.6,974.1c0,8.2-1.6,15-4.9,20.4c-4.2,7-11.3,10.5-21.1,10.5H83v30.2H63v-91h31.9c9.1,0,15.9,3.1,20.6,9.4
			C119.6,958.9,121.6,965.8,121.6,974.1z M100.8,974.4c0-3.4-0.8-6.1-2.5-8.1c-1.7-2-4.5-3-8.6-3H83v22.7h6.7c4.3,0,7.3-1.1,8.9-3.3
			C100.1,980.5,100.8,977.8,100.8,974.4z"/>
		<path d="M343.9,1035.1h-21.4l-5-15.9H290l-5.3,15.9h-21.1l29.6-91H315L343.9,1035.1z M312.2,1001.3l-8.3-29l-8.4,29H312.2z"/>
		<path d="M544.8,1005c0,15.4-5.7,25.4-17.1,30.1c-4,1.6-8.3,2.5-12.9,2.5c-9.6,0-18.6-3.4-26.8-10.3l8.6-19.1
			c6,6.4,11.9,9.7,17.7,9.7c2.6,0,4.8-0.7,6.6-2.2c2.1-1.6,3.2-3.9,3.2-6.9c0-2.7-1.2-4.9-3.5-6.7c-1.7-1.3-4.7-2.7-8.8-4.1
			c-5-1.7-8.1-2.9-9.4-3.6c-2-1-3.8-2.2-5.2-3.6c-4.1-4-6.2-10-6.2-18.1c0-8.4,2.1-15.4,6.4-21c5-6.5,11.6-9.8,19.9-9.8
			c8.3,0,16.4,2.5,24.4,7.4l-8,18.4c-4.4-4-8.8-6.1-13.2-6.1c-2.1,0-4.1,0.6-5.8,1.9c-1.9,1.5-2.9,3.4-2.9,5.9
			c0,2.4,1.3,4.5,3.8,6.2c1.1,0.8,4.5,2.2,10.2,4.1c7.1,2.4,12.1,5.9,15.1,10.4C543.5,994.1,544.8,999,544.8,1005z"/>
		<path d="M749.3,1005c0,15.4-5.7,25.4-17.1,30.1c-4,1.6-8.3,2.5-12.9,2.5c-9.6,0-18.6-3.4-26.8-10.3l8.6-19.1
			c6,6.4,11.9,9.7,17.7,9.7c2.6,0,4.8-0.7,6.6-2.2c2.1-1.6,3.2-3.9,3.2-6.9c0-2.7-1.2-4.9-3.5-6.7c-1.7-1.3-4.7-2.7-8.8-4.1
			c-5-1.7-8.1-2.9-9.4-3.6c-2-1-3.8-2.2-5.2-3.6c-4.1-4-6.2-10-6.2-18.1c0-8.4,2.1-15.4,6.4-21c5-6.5,11.6-9.8,19.9-9.8
			c8.3,0,16.4,2.5,24.4,7.4l-8,18.4c-4.4-4-8.8-6.1-13.2-6.1c-2.1,0-4.1,0.6-5.8,1.9c-1.9,1.5-2.9,3.4-2.9,5.9
			c0,2.4,1.3,4.5,3.8,6.2c1.1,0.8,4.5,2.2,10.2,4.1c7.1,2.4,12.1,5.9,15.1,10.4C748,994.1,749.3,999,749.3,1005z"/>
		<path d="M973.7,1035.1h-21.4l-5-15.9h-27.6l-5.3,15.9h-21.1l29.6-91h21.8L973.7,1035.1z M942,1001.3l-8.3-29l-8.4,29H942z"/>
		<path d="M1188.7,989.6c0,9.5-2.4,18.2-7.2,26.3c-4.8,8.1-11,13.7-18.5,16.8c-4,1.6-8,2.5-12.2,2.5h-29.6v-91h29.6
			c7.2,0,13.9,2.4,20.1,7.1c6.1,4.6,10.7,10.8,13.9,18.5C1187.4,976.2,1188.7,982.8,1188.7,989.6z M1167.9,989.6
			c0-6.3-1.5-11.8-4.5-16.4c-4-6.2-9.9-9.3-17.7-9.3h-4.6v51.5h4.6c7.9,0,13.8-3.1,17.7-9.3
			C1166.4,1001.4,1167.9,995.9,1167.9,989.6z"/>
		<path d="M1383.8,1035.1H1340v-91h43.8v19.7H1360v15.5h22.5v19.7H1360v16.3h23.8V1035.1z"/>
		<path d="M1612,1035.1h-20l-36.8-55.7v55.7h-20v-91h20l36.8,55.7v-55.7h20V1035.1z"/>
		<path d="M1839.9,1035.1h-21.4l-5-15.9h-27.6l-5.3,15.9h-21.1l29.6-91h21.8L1839.9,1035.1z M1808.1,1001.3l-8.3-29l-8.4,29H1808.1z
			"/>
	</g>
</g>
</svg>
